<svg version="1.1" id="svg9" xml:space="preserve" width="300" height="300" viewBox="0 0 682.66669 682.66669" xmlns="http://www.w3.org/2000/svg" xmlns:svg="http://www.w3.org/2000/svg" xmlns:xlink="http://www.w3.org/1999/xlink" xmlns:svgjs="http://svgjs.dev/svgjs"><g width="100%" height="100%" transform="matrix(1,0,0,1,0,0)"><defs id="defs13"><clipPath clipPathUnits="userSpaceOnUse" id="clipPath23"><path d="M 0,512 H 512 V 0 H 0 Z" id="path21" fill="#ff0000" fill-opacity="1" data-original-color="#000000ff" stroke="none" stroke-opacity="1"/></clipPath></defs><g id="g15" transform="matrix(1.3333333,0,0,-1.3333333,0,682.66667)"><g id="g17"><g id="g19" clip-path="url(#clipPath23)"><g id="g25" transform="translate(301,421)"><path d="m 0,0 c 0,-24.853 -20.147,-45 -45,-45 -24.853,0 -45,20.147 -45,45 0,24.853 20.147,45 45,45 C -20.147,45 0,24.853 0,0 Z" style="stroke-linecap: round; stroke-linejoin: round; stroke-miterlimit: 10; stroke-dasharray: none;" id="path27" fill="none" fill-opacity="1" stroke="#ff0000" stroke-opacity="1" data-original-stroke-color="#000000ff" stroke-width="30" data-original-stroke-width="30"/></g><g id="g29" transform="translate(435.0918,203.3096)"><path d="m 0,0 -1.597,6.387 c -20.068,80.244 -91.845,136.303 -174.565,136.303 -56.983,0 -106.45,40.547 -117.627,96.416 l -5.889,30.438 c -3.252,16.26 -19.16,26.851 -35.288,23.54 -16.26,-3.237 -26.792,-19.042 -23.54,-35.288 l 5.889,-30.452 C -338.059,154.526 -280.1,99.175 -209.092,85.869 v -73.14 c -54.609,-26.938 -90,-82.705 -90,-144.902 v -26.137 c 0,-16.567 13.433,-30 30,-30 16.568,0 30,13.433 30,30 v 26.137 c 0,33.93 16.864,64.656 43.728,83.298 19.559,-48.248 48.266,-93.851 85.061,-130.646 5.86,-5.859 13.535,-8.789 21.211,-8.789 7.676,0 15.352,2.93 21.211,8.789 11.719,11.719 11.719,30.704 0,42.422 -35.976,35.977 -63.486,81.508 -79.585,129.76 l -1.626,4.885 v 81.685 c 43.123,-9.993 78.172,-42.956 89.297,-87.434 l 1.611,-6.416 c 3.413,-13.609 15.645,-22.691 29.063,-22.691 2.432,0 4.878,0.293 7.339,0.909 C -5.713,-32.373 4.043,-16.069 0,0 Z" style="stroke-linecap: round; stroke-linejoin: round; stroke-miterlimit: 10; stroke-dasharray: none;" id="path31" fill="none" fill-opacity="1" stroke="#ff0000" stroke-opacity="1" data-original-stroke-color="#000000ff" stroke-width="30" data-original-stroke-width="30"/></g><g id="g33" transform="translate(376,406)"><path d="M 0,0 H 30 V 60 L 60,30" style="stroke-linecap: round; stroke-linejoin: round; stroke-miterlimit: 10; stroke-dasharray: none;" id="path35" fill="none" fill-opacity="1" stroke="#ff0000" stroke-opacity="1" data-original-stroke-color="#000000ff" stroke-width="30" data-original-stroke-width="30"/></g><g id="g37" transform="translate(15,256)"><path d="M 0,0 H 31 V 60 L 61,30" style="stroke-linecap: round; stroke-linejoin: round; stroke-miterlimit: 10; stroke-dasharray: none;" id="path39" fill="none" fill-opacity="1" stroke="#ff0000" stroke-opacity="1" data-original-stroke-color="#000000ff" stroke-width="30" data-original-stroke-width="30"/></g><g id="g41" transform="translate(467,376)"><path d="M 0,0 V -60" style="stroke-linecap: round; stroke-linejoin: round; stroke-miterlimit: 10; stroke-dasharray: none;" id="path43" fill="none" fill-opacity="1" stroke="#ff0000" stroke-opacity="1" data-original-stroke-color="#000000ff" stroke-width="30" data-original-stroke-width="30"/></g><g id="g45" transform="translate(437,346)"><path d="M 0,0 H 60" style="stroke-linecap: round; stroke-linejoin: round; stroke-miterlimit: 10; stroke-dasharray: none;" id="path47" fill="none" fill-opacity="1" stroke="#ff0000" stroke-opacity="1" data-original-stroke-color="#000000ff" stroke-width="30" data-original-stroke-width="30"/></g><g id="g49" transform="translate(76,196)"><path d="M 0,0 V -60" style="stroke-linecap: round; stroke-linejoin: round; stroke-miterlimit: 10; stroke-dasharray: none;" id="path51" fill="none" fill-opacity="1" stroke="#ff0000" stroke-opacity="1" data-original-stroke-color="#000000ff" stroke-width="30" data-original-stroke-width="30"/></g><g id="g53" transform="translate(46,166)"><path d="M 0,0 H 60" style="stroke-linecap: round; stroke-linejoin: round; stroke-miterlimit: 10; stroke-dasharray: none;" id="path55" fill="none" fill-opacity="1" stroke="#ff0000" stroke-opacity="1" data-original-stroke-color="#000000ff" stroke-width="30" data-original-stroke-width="30"/></g><g id="g57" transform="translate(15,15)"><path d="M 0,0 H 482" style="stroke-linecap: round; stroke-linejoin: round; stroke-miterlimit: 10; stroke-dasharray: none;" id="path59" fill="none" fill-opacity="1" stroke="#ff0000" stroke-opacity="1" data-original-stroke-color="#000000ff" stroke-width="30" data-original-stroke-width="30"/></g></g></g></g></g></svg>