<?xml version="1.0" encoding="UTF-8"?>
<svg version="1.1" xmlns="http://www.w3.org/2000/svg" width="538" height="538">
<path d="M0 0 C0.84839447 0.00215515 1.69678894 0.0043103 2.57089233 0.00653076 C40.49706814 0.16033899 76.76103127 8.7229705 110.875 25.3125 C111.67147949 25.69776855 112.46795898 26.08303711 113.28857422 26.47998047 C129.68965702 34.50831886 144.94732319 44.48627042 158.875 56.3125 C159.94633533 57.19955613 161.01797281 58.0862474 162.08984375 58.97265625 C174.52330957 69.34548048 185.94048448 80.4978864 195.875 93.3125 C196.64972656 94.27027344 197.42445313 95.22804688 198.22265625 96.21484375 C229.497796 135.51941716 245.48470051 182.80685472 250.875 232.3125 C251.27847656 231.82652344 251.68195313 231.34054688 252.09765625 230.83984375 C254.84425598 228.47957893 257.21785373 228.8286469 260.7109375 228.9765625 C262.875 229.3125 262.875 229.3125 265.4375 230.75 C267.65985966 234.71159766 267.85177098 237.97200445 266.875 242.3125 C264.17617819 247.45216524 260.87028795 252.09650422 257.5 256.8125 C256.599739 258.11071654 255.70128329 259.41018693 254.8046875 260.7109375 C248.25703219 270.1214839 248.25703219 270.1214839 245.875 271.3125 C240.19071627 271.87160987 240.19071627 271.87160987 237.875 271.3125 C232.44940717 266.3438926 228.67968957 260.46068067 224.625 254.375 C223.8928125 253.30314453 223.160625 252.23128906 222.40625 251.12695312 C221.36210938 249.56557617 221.36210938 249.56557617 220.296875 247.97265625 C219.66362305 247.03043213 219.03037109 246.08820801 218.37792969 245.11743164 C216.74984337 242.07891903 216.12333416 239.74135313 215.875 236.3125 C217.2489373 233.43377423 218.62489437 231.56260563 220.875 229.3125 C222.75 229.08203125 222.75 229.08203125 224.875 229.125 C225.926875 229.13466797 225.926875 229.13466797 227 229.14453125 C228.875 229.3125 228.875 229.3125 230.875 230.3125 C229.99122639 189.89994326 212.34322191 147.70013747 188.875 115.3125 C188.46926758 114.75127441 188.06353516 114.19004883 187.64550781 113.61181641 C182.31270016 106.31039498 176.52484921 99.55437244 170.33984375 92.96484375 C168.37951132 90.85538936 166.51445317 88.72304058 164.6875 86.5 C162.10577772 83.45881867 159.27224547 80.87307155 156.2265625 78.30078125 C154.53112106 76.86726016 152.86219816 75.40216638 151.2109375 73.91796875 C118.67802074 44.94985785 76.55518523 27.31179486 33.875 20.3125 C33.18970215 20.19535645 32.5044043 20.07821289 31.79833984 19.95751953 C-23.51324249 10.89380029 -84.16146929 25.90049282 -130.125 57.3125 C-131.01421143 57.91094727 -131.01421143 57.91094727 -131.92138672 58.52148438 C-152.02501894 72.11729773 -170.54090142 89.03543791 -184.8984375 108.64160156 C-186.11157566 110.29421254 -187.35038912 111.92474369 -188.59375 113.5546875 C-224.24964133 161.0324313 -239.20250025 223.74335054 -231.125 282.3125 C-224.44084692 324.56756564 -208.06658617 365.52495608 -180.125 398.3125 C-179.18979103 399.43203016 -178.25492083 400.55184337 -177.3203125 401.671875 C-168.11009666 412.63839549 -158.40835125 422.44700973 -147.125 431.3125 C-145.62839844 432.51712891 -145.62839844 432.51712891 -144.1015625 433.74609375 C-106.35265542 463.83434932 -57.4266845 481.97401959 -9.125 483.3125 C-7.86945313 483.35246094 -6.61390625 483.39242188 -5.3203125 483.43359375 C57.36984877 484.76614551 117.54199624 459.59794527 162.6953125 416.71484375 C170.87902931 408.79525093 178.11913851 400.46829837 184.875 391.3125 C185.71212299 390.20564098 186.54936192 389.09886963 187.38671875 387.9921875 C201.16652244 369.51300675 211.63803452 348.7105729 219.5859375 327.12109375 C220.875 324.3125 220.875 324.3125 223.875 322.3125 C226.94184005 321.77594419 229.80690527 321.7808446 232.875 322.3125 C235.4375 324.375 235.4375 324.375 236.875 327.3125 C237.55653273 333.74189916 235.58784668 338.5176885 233.125 344.3125 C232.72450439 345.26801758 232.32400879 346.22353516 231.91137695 347.20800781 C220.57180302 373.69075919 205.52212504 397.8098376 185.9921875 419.0078125 C183.88557905 421.30098406 181.84996719 423.64541729 179.8125 426 C176.71903544 429.48473281 173.46900627 432.58251494 169.91015625 435.5859375 C167.84480484 437.33811662 165.86591009 439.16398045 163.875 441 C114.53978636 484.62978077 48.35464091 504.58991795 -16.8046875 501.0390625 C-68.68747957 497.55318741 -117.8843991 478.13872996 -158.125 445.3125 C-158.68106934 444.85939453 -159.23713867 444.40628906 -159.81005859 443.93945312 C-172.82363762 433.24697737 -184.79811704 421.64666207 -195.125 408.3125 C-195.91132813 407.33152344 -196.69765625 406.35054688 -197.5078125 405.33984375 C-226.0458841 369.49255436 -243.87580841 325.80720249 -249.125 280.3125 C-249.2178125 279.54397705 -249.310625 278.7754541 -249.40625 277.98364258 C-250.35981079 269.04996995 -250.36850853 260.09962425 -250.375 251.125 C-250.37567474 250.28379608 -250.37634949 249.44259216 -250.37704468 248.57589722 C-250.35933678 234.62687525 -249.61661893 221.06465294 -247.125 207.3125 C-246.96402832 206.39114258 -246.80305664 205.46978516 -246.63720703 204.52050781 C-237.95439421 156.26041655 -214.81111423 112.67166841 -181.125 77.3125 C-180.50447754 76.65797852 -179.88395508 76.00345703 -179.24462891 75.32910156 C-169.26474567 64.87074741 -158.86318363 55.74007697 -147.125 47.3125 C-146.21363281 46.63960937 -145.30226563 45.96671875 -144.36328125 45.2734375 C-137.25947584 40.13051722 -129.71004845 35.6988473 -122.125 31.3125 C-120.99707031 30.6525 -119.86914062 29.9925 -118.70703125 29.3125 C-82.71300535 9.13957701 -41.04107625 -0.18949128 0 0 Z " fill="#FF0000" transform="translate(269.125,18.6875)"/>
<path d="M0 0 C11.69600082 8.75250728 18.9444636 20.35818785 21.34375 34.75390625 C22.51535279 50.86824626 18.98378269 64.42538484 8.46484375 77 C-0.65624805 86.74759103 -12.22852363 91.90119523 -25.5 93.1015625 C-41.04068169 93.46481014 -54.01028459 88.94225101 -65.33203125 78.20703125 C-76.40915765 66.51554322 -80.20598699 53.99135251 -79.93359375 38.1875 C-79.33302977 24.27294046 -72.43172222 12.54514471 -62.5703125 3.0859375 C-44.48732004 -11.38530446 -19.43371701 -12.58774852 0 0 Z " fill="#FF0000" transform="translate(406.65625,114.24609375)"/>
<path d="M0 0 C11.69600082 8.75250728 18.9444636 20.35818785 21.34375 34.75390625 C22.50811894 50.76875118 19.00712471 64.12822498 8.72265625 76.7421875 C-0.34736724 86.55173329 -12.27604792 91.914173 -25.49609375 93.09765625 C-41.15462855 93.479184 -54.03196028 88.88517487 -65.40234375 78.06640625 C-75.79565033 67.40290973 -79.94465252 55.21096706 -79.97314453 40.48217773 C-79.73841296 26.86340001 -74.27702318 15.49459213 -65.15625 5.56640625 C-47.51722574 -11.35320161 -20.32600706 -13.16570912 0 0 Z " fill="#FF0000" transform="translate(185.65625,114.24609375)"/>
<path d="M0 0 C9.87629913 7.90860735 15.35304494 19.34402201 17.3828125 31.671875 C18.86580249 45.79398423 15.78780073 59.22184979 7.2265625 70.6953125 C-0.99420763 80.28621098 -12.51272066 87.55938461 -25.1484375 89.4453125 C-41.83668782 90.57140019 -55.15053829 86.81623562 -68.3359375 76.2578125 C-78.68997529 66.71954739 -83.52029176 53.49879449 -84.1796875 39.66796875 C-84.04204513 25.47359962 -79.17315649 12.58978069 -69.1484375 2.4453125 C-48.29468416 -15.80974235 -22.05578066 -15.96036491 0 0 Z " fill="#FF0000" transform="translate(302.1484375,242.5546875)"/>
<path d="M0 0 C2.11413438 1.93724325 3.94488531 3.79061583 5.8125 5.9375 C6.56563477 6.76411133 6.56563477 6.76411133 7.33398438 7.60742188 C11 11.71236182 11 11.71236182 11 14 C10.23816406 14.21914063 9.47632813 14.43828125 8.69140625 14.6640625 C-4.18108083 18.61741059 -13.39867695 24.87652079 -19.8125 36.9375 C-30.31884238 57.84261129 -24.77678291 98.3837576 -25 112 C27.14 112 79.28 112 133 112 C136.86492249 64.29621724 136.86492249 64.29621724 117.8125 23.625 C111.83757239 18.62536126 104.56401104 15.70684335 97 14 C98.63788145 10.18737595 101.04622755 7.31322482 103.75 4.1875 C104.59046875 3.19105469 105.4309375 2.19460938 106.296875 1.16796875 C109 -1 109 -1 112 -0.98046875 C126.5269505 3.76727158 137.45744992 14.44556954 144.46875 27.796875 C148.22097982 35.69400986 150.23899801 42.93443101 150.29052734 51.69775391 C150.29724457 52.42080215 150.30396179 53.1438504 150.31088257 53.8888092 C150.32970339 56.25146564 150.33377756 58.61383604 150.3359375 60.9765625 C150.34237287 62.6322745 150.34910178 64.28798539 150.35610962 65.94369507 C150.36803984 69.40161782 150.37179448 72.85944095 150.37060547 76.31738281 C150.37040168 80.74030243 150.39778412 85.16258385 150.43214989 89.58535194 C150.45441334 92.99979575 150.45844331 96.41408525 150.45738602 99.82859421 C150.45973971 101.45923451 150.46855023 103.08987921 150.48405075 104.72044754 C150.50371536 107.00109769 150.49787388 109.28036122 150.48583984 111.56103516 C150.48868988 112.85594879 150.49153992 114.15086243 150.49447632 115.48501587 C149.75223131 120.76126332 147.32642308 123.80298405 143.4375 127.3125 C139.35531294 130.1386295 136.15554467 130.12868725 131.30168152 130.14044189 C130.61731484 130.14341302 129.93294817 130.14638414 129.22784311 130.1494453 C126.92947097 130.15813248 124.63115093 130.15964056 122.33276367 130.16113281 C120.68690377 130.16576097 119.04104495 130.17078563 117.39518738 130.17617798 C112.91989869 130.18930418 108.444625 130.19574737 103.96932006 130.20018864 C101.1736854 130.20311901 98.37805485 130.20722375 95.58242226 130.21169281 C86.83654906 130.22536832 78.09068523 130.23503471 69.34480208 130.2388947 C59.24707269 130.24337573 49.14947865 130.26092548 39.05179042 130.2898953 C31.24787626 130.31150763 23.4440002 130.32159874 15.64005643 130.32293582 C10.97851792 130.32398417 6.31710662 130.32989835 1.65559959 130.34775543 C-2.7299318 130.36422836 -7.11524025 130.36639543 -11.50079155 130.35761642 C-13.10922467 130.35684563 -14.71766974 130.36119436 -16.32607269 130.37107468 C-18.52455727 130.38378637 -20.72225125 130.37792227 -22.92073059 130.36749268 C-24.76492443 130.36969252 -24.76492443 130.36969252 -26.6463747 130.3719368 C-31.02258613 129.88658917 -34.40903051 128.4851568 -37.64453125 125.46484375 C-41.43640646 120.5062377 -42.12928187 118.34156578 -42.17700195 112.09448242 C-42.18357315 111.38355438 -42.19014435 110.67262634 -42.19691467 109.94015503 C-42.21667764 107.57859183 -42.2283246 105.21709272 -42.23828125 102.85546875 C-42.24235678 102.04608667 -42.2464323 101.2367046 -42.25063133 100.40279579 C-42.27151725 96.10845825 -42.28580096 91.81415278 -42.29516602 87.51977539 C-42.30616052 83.11309879 -42.3404711 78.70693697 -42.38033772 74.30044079 C-42.40668819 70.89001122 -42.41487464 67.47970001 -42.41844749 64.06917763 C-42.42327595 62.4471017 -42.43478114 60.8250297 -42.45348549 59.20305443 C-42.65514279 40.53674363 -37.79832346 25.32100516 -24.72265625 11.515625 C-20.5300533 7.6418283 -15.97473839 4.76199986 -11 2 C-9.88625 1.34 -8.7725 0.68 -7.625 0 C-4.37947785 -1.23638939 -3.27632612 -1.13320107 0 0 Z " fill="#FF0000" transform="translate(215,319)"/>
<path d="M0 0 C3.69068595 3.57884698 7.09198395 7.33726742 10.44921875 11.23046875 C11.58693322 12.52866688 12.7794033 13.7794033 14 15 C12.329375 15.5878125 12.329375 15.5878125 10.625 16.1875 C-2.25423649 21.07978948 -11.98025508 27.17918634 -18 40 C-21.51590337 47.84822823 -21.4751506 55.62388672 -21.51171875 64.09765625 C-21.52835571 65.36637573 -21.54499268 66.63509521 -21.56213379 67.94226074 C-21.61965288 72.64884121 -21.6521157 77.35570108 -21.6875 82.0625 C-21.790625 92.601875 -21.89375 103.14125 -22 114 C17.6 114 57.2 114 98 114 C98 114.66 98 115.32 98 116 C96.1640625 117.19140625 96.1640625 117.19140625 93.625 118.5625 C87.324431 122.19364105 82.12753668 126.87246332 77 132 C73.84582283 132.11139353 70.71334465 132.15740844 67.55834961 132.16113281 C66.56643616 132.16609772 65.57452271 132.17106262 64.55255127 132.17617798 C61.25247516 132.19084873 57.95244719 132.19761156 54.65234375 132.203125 C52.36365253 132.20887469 50.07496132 132.21463244 47.78627014 132.22039795 C42.97673314 132.23092346 38.16721292 132.23675522 33.35766602 132.24023438 C27.20295859 132.24570667 21.0484738 132.26970118 14.89383602 132.29820633 C10.16082623 132.3168625 5.42786958 132.32204002 0.69482613 132.32357025 C-1.57330981 132.32659318 -3.8414449 132.33460951 -6.10954475 132.34775543 C-9.29072892 132.3648694 -12.47137596 132.36292183 -15.65258789 132.35644531 C-16.58538071 132.3656601 -17.51817352 132.37487488 -18.47923279 132.3843689 C-24.33039522 132.34717916 -28.67411661 131.47921892 -34 129 C-38.8353646 124.03738896 -40.2485818 120.10103403 -40.2746582 113.23461914 C-40.27976913 112.56241333 -40.28488007 111.89020752 -40.29014587 111.19763184 C-40.30403382 108.97671568 -40.30308394 106.75611068 -40.30078125 104.53515625 C-40.30467228 102.98017768 -40.30900779 101.42520016 -40.31376648 99.870224 C-40.32122966 96.60607468 -40.3209394 93.34203346 -40.31567383 90.07788086 C-40.30991815 85.92914859 -40.32671415 81.78086846 -40.3500185 77.63221073 C-40.364887 74.41563906 -40.36560925 71.19917252 -40.36250877 67.98257256 C-40.36301673 66.45541943 -40.36815387 64.92825958 -40.37832069 63.40114021 C-40.4822157 45.59284003 -37.12084296 29.34218037 -24.65869141 15.984375 C-17.45090599 8.71463154 -9.50147645 3.71796904 0 0 Z " fill="#FF0000" transform="translate(100,192)"/>
<path d="M0 0 C15.77072957 5.40231375 26.73429231 15.51607577 35.17578125 29.69140625 C40.65250462 41.25414253 41.61279431 53.79431188 41.53125 66.375 C41.53395578 67.87996672 41.53784711 69.38493173 41.54284668 70.88989258 C41.54867646 74.00928769 41.54038402 77.12821832 41.52148438 80.24755859 C41.49853773 84.22624019 41.51195679 88.20385131 41.53577423 92.18249512 C41.55027534 95.27622459 41.54560938 98.36970263 41.53526306 101.46343994 C41.53261588 102.93052298 41.53579395 104.39762966 41.54518127 105.86468506 C41.58474883 113.77159141 41.5462969 120.25680714 37 127 C32.4035476 130.73461758 28.63629612 132.09709374 22.81439209 132.17408752 C21.57398415 132.19349144 21.57398415 132.19349144 20.30851746 132.21328735 C19.4097438 132.22226044 18.51097015 132.23123352 17.58496094 132.24047852 C16.63162369 132.25347488 15.67828644 132.26647125 14.69606018 132.27986145 C4.74463602 132.40641026 -5.20762054 132.46327971 -15.15966797 132.51489258 C-19.87986939 132.54165782 -24.59906386 132.59042332 -29.31884766 132.65844727 C-35.02293869 132.74043986 -40.72606915 132.78308257 -46.43071747 132.79795647 C-48.60127608 132.81019404 -50.77180346 132.83620314 -52.94202423 132.87640572 C-69.96126595 133.17593811 -69.96126595 133.17593811 -75.04507446 130.24360657 C-77.02803008 128.26190135 -78.47309789 126.33588554 -80 124 C-82.99914938 121.73800669 -82.99914938 121.73800669 -85.875 120.0625 C-86.80054688 119.49660156 -87.72609375 118.93070312 -88.6796875 118.34765625 C-90.09696754 117.52448855 -91.5340429 116.73297855 -93 116 C-93 115.34 -93 114.68 -93 114 C-54.72 114 -16.44 114 23 114 C22.87625 98.53125 22.87625 98.53125 22.75 82.75 C22.72631348 77.90199707 22.72631348 77.90199707 22.70214844 72.95605469 C22.6727525 70.36131036 22.64192208 67.76658172 22.609375 65.171875 C22.60892181 64.18637665 22.60892181 64.18637665 22.60845947 63.18096924 C22.590827 49.01435639 19.68329931 37.63988173 10 27 C3.25478522 20.79670846 -4.22114822 18.21535288 -13 16 C-11.97282151 12.91846453 -10.83594686 11.73117647 -8.54296875 9.5390625 C-5.519385 6.52313339 -2.78523872 3.2347297 0 0 Z " fill="#FF0000" transform="translate(433,192)"/>
<path d="M0 0 C5.73741451 3.56573199 10.40477812 8.96575903 12.36328125 15.46875 C13.13357847 23.4673014 13.69859804 31.93784401 8.36328125 38.46875 C2.34953058 44.89994107 -3.56045802 48.54366729 -12.51171875 48.90625 C-19.68892609 48.70862977 -24.85152004 46.74754895 -30.38671875 42.21875 C-36.37138319 34.90416013 -39.2790035 29.10302126 -38.63671875 19.46875 C-37.1117409 11.70395451 -33.21241819 5.71299591 -26.73046875 1.1171875 C-18.20904932 -3.90178411 -8.99020339 -4.01476388 0 0 Z " fill="#FF0000" transform="translate(498.63671875,454.53125)"/>
<path d="M0 0 C5.94153658 4.7740362 10.05584479 10.25792725 11 18 C11.60641575 25.88340481 9.39262621 33.13847783 4.59375 39.4296875 C-0.5855922 44.5328629 -7.40511379 47.13237674 -14.5625 47.375 C-22.05876635 47.28446538 -27.5747007 45.15203795 -33.10546875 40.0625 C-39.5427664 33.05447287 -40.57126848 27.08103493 -40.3046875 17.66796875 C-39.72617107 10.70352093 -37.23915352 6.93112431 -32.25 2.1875 C-22.72414999 -5.49633482 -10.51445955 -6.7649636 0 0 Z " fill="#FF0000" transform="translate(67,456)"/>
<path d="M0 0 C6.41872886 3.6383133 11.48592493 8.87060035 13.6875 16 C14.45858421 24.00672321 15.01659135 32.45839068 9.6875 39 C3.50870461 45.73926134 -2.61332418 49.03029439 -11.75 49.4375 C-19.23983814 49.18887467 -24.75204183 46.75343439 -30.1875 41.625 C-35.15804913 36.24023845 -37.00861178 30.9505469 -37.5625 23.75 C-37.07396294 16.42194417 -34.63421794 9.24345738 -29.3125 4 C-20.34164652 -2.09638987 -10.28811118 -4.70223486 0 0 Z " fill="#FF0000" transform="translate(497.3125,37)"/>
<path d="M0 0 C5.97331364 3.75641373 10.5737521 10.02587201 12.70703125 16.75390625 C13.38909718 25.62076329 12.42169741 32.51937727 6.64453125 39.50390625 C2.26979346 44.15669941 -2.93116436 47.76772477 -9.453125 48.4296875 C-17.51399 48.65005647 -24.27345528 47.63187396 -30.4375 42.09765625 C-37.30525193 34.67305957 -38.69479357 28.91001692 -38.41015625 18.859375 C-37.82873353 11.85993989 -35.33897439 8.11137368 -30.29296875 3.37890625 C-21.24563068 -3.89216545 -10.47183821 -5.41516679 0 0 Z " fill="#FF0000" transform="translate(65.10546875,37.80859375)"/>
<path d="M0 0 C13.13770437 4.50036256 26.39194568 13.38462357 33 26 C32 29 32 29 29.890625 30.31640625 C29.01921875 30.72761719 28.1478125 31.13882813 27.25 31.5625 C26.38890625 31.97628906 25.5278125 32.39007813 24.640625 32.81640625 C22.11729029 33.94742758 19.57571207 34.99473108 17 36 C16.55011719 35.35933594 16.10023438 34.71867187 15.63671875 34.05859375 C8.02836108 23.82771601 -0.52902673 18.53278954 -13 16 C-11.23929177 12.19847086 -9.00682657 9.9384896 -6 7 C-3.96206305 4.69833003 -1.97535163 2.35548802 0 0 Z " fill="#FF0000" transform="translate(212,192)"/>
<path d="M0 0 C3.01480535 2.9732934 5.92526718 5.97834411 8.6875 9.1875 C10.41610338 11.19206667 12.1276298 13.1276298 14 15 C12.329375 15.5878125 12.329375 15.5878125 10.625 16.1875 C0.30965515 20.10587304 -8.46178604 24.86249608 -15 34 C-20.68502535 32.35433477 -25.76681636 29.70967216 -31 27 C-30.14971665 21.04801652 -24.99798706 17.12928384 -21 13 C-20.45214844 12.42636719 -19.90429688 11.85273438 -19.33984375 11.26171875 C-13.86071146 6.06284899 -6.76494316 3.17136032 0 0 Z " fill="#FF0000" transform="translate(321,192)"/>
<path d="M0 0 C2.5 1.4375 2.5 1.4375 4 4 C4.75551032 8.28909505 4.71240656 11.73005787 2.5625 15.5625 C-1.26994213 17.71240656 -4.71090495 17.75551032 -9 17 C-11.5625 15.5 -11.5625 15.5 -13 13 C-13.70476018 8.06667872 -13.77041398 6.15562097 -11 2 C-6.84437903 -0.77041398 -4.93332128 -0.70476018 0 0 Z " fill="#FF0000" transform="translate(532,519)"/>
<path d="M0 0 C2.99380345 1.99586897 4.63808488 3.38259171 5.44140625 6.97265625 C5.63331226 10.28458255 5.21310447 12.62938353 3.5625 15.5 C-0.26076161 17.7380068 -3.68129022 17.75280262 -8 17 C-10.5625 15.5625 -10.5625 15.5625 -12 13 C-12.75280262 8.68129022 -12.7380068 5.26076161 -10.5 1.4375 C-6.99448385 -0.57817178 -3.88156853 -0.868549 0 0 Z " fill="#FF0000" transform="translate(14,519)"/>
<path d="M0 0 C2.5625 1.4375 2.5625 1.4375 4 4 C4.75280262 8.31870978 4.7380068 11.73923839 2.5 15.5625 C-1.00551615 17.57817178 -4.11843147 17.868549 -8 17 C-10.99380345 15.00413103 -12.63808488 13.61740829 -13.44140625 10.02734375 C-13.63331226 6.71541745 -13.21310447 4.37061647 -11.5625 1.5 C-7.73923839 -0.7380068 -4.31870978 -0.75280262 0 0 Z " fill="#FF0000" transform="translate(532,2)"/>
<path d="M0 0 C2.5625 1.5 2.5625 1.5 4 4 C4.70476018 8.93332128 4.77041398 10.84437903 2 15 C-2.15562097 17.77041398 -4.06667872 17.70476018 -9 17 C-11.5 15.5625 -11.5 15.5625 -13 13 C-13.75551032 8.71090495 -13.71240656 5.26994213 -11.5625 1.4375 C-7.73005787 -0.71240656 -4.28909505 -0.75551032 0 0 Z " fill="#FF0000" transform="translate(15,2)"/>
</svg>
