<svg id="svg7272" height="300" viewBox="0 0 56 56.000002" width="300" xmlns="http://www.w3.org/2000/svg" xmlns:cc="http://creativecommons.org/ns#" xmlns:dc="http://purl.org/dc/elements/1.1/" xmlns:inkscape="http://www.inkscape.org/namespaces/inkscape" xmlns:rdf="http://www.w3.org/1999/02/22-rdf-syntax-ns#" xmlns:sodipodi="http://sodipodi.sourceforge.net/DTD/sodipodi-0.dtd" xmlns:svg="http://www.w3.org/2000/svg" version="1.1" xmlns:xlink="http://www.w3.org/1999/xlink" xmlns:svgjs="http://svgjs.dev/svgjs"><g width="100%" height="100%" transform="matrix(1,0,0,1,0,0)"><g id="layer1" transform="translate(0 -996.362)"><g id="g26877" transform="translate(1116.696 155.498)"><g id="g26719"><circle id="circle21712" cx="-1088.696" cy="868.865" fill="#ff0000" r="28" fill-opacity="1" data-original-color="#512da8ff" stroke="none" stroke-opacity="1"/><g id="g20508" fill="#fff" transform="translate(-3099.099 488.599)"><path id="path20510" d="m1999.6562 385.39062c-.827.00035-1.5086.31786-2.0917.5918-.5832.27395-1.0333.54883-1.0333.54883a1.0001 1.0001 0 1 0 1.0391 1.70898s.3668-.22321.8438-.44726c.4769-.22406 1.0986-.40229 1.2421-.40235.1419-.00007.3719.10019.7793.34766.4075.24747.9936.64063 1.8184.64063.8247 0 1.4089-.39123 1.8164-.63868.4076-.24745.6391-.3496.7813-.34961.1421 0 .3717.10216.7793.34961.4075.24745.9917.63868 1.8164.63868.8246 0 1.4108-.39123 1.8183-.63868.4076-.24745.6372-.3496.7793-.34961.1422 0 .3718.10216.7793.34961.4076.24745.9937.63868 1.8184.63868.8246 0 1.4088-.39123 1.8164-.63868.4075-.24745.6371-.3496.7793-.34961.1421 0 .3717.10216.7793.34961.4075.24745.9937.63868 1.8183.63868.8247 0 1.4089-.39123 1.8164-.63868.4076-.24745.6392-.34961.7813-.34961.144-.00008.7648.1776 1.2422.4004.4773.22279.8457.44336.8457.44336a1.0001 1.0001 0 1 0 1.0351-1.71094s-.4518-.27267-1.0351-.54492c-.5828-.27202-1.2632-.58786-2.0879-.5879-.8234.00075-1.4092.39146-1.8164.63868-.4075.24745-.6371.34961-.7793.34961-.1421 0-.3717-.10216-.7793-.34961-.4075-.24745-.9937-.63867-1.8183-.63868-.8247.00001-1.4089.39123-1.8164.63868-.4076.24745-.6372.34961-.7793.34961-.1422 0-.3737-.10216-.7813-.34961-.4075-.24745-.9917-.63867-1.8164-.63868-.8246.00001-1.4108.39123-1.8183.63868-.4076.24745-.6372.34961-.7793.34961-.1422 0-.3718-.10216-.7793-.34961-.4076-.24745-.9918-.63867-1.8164-.63868-.8247.00001-1.4108.39123-1.8184.63868-.4075.24745-.6372.34961-.7793.34961-.142 0-.3717-.10206-.7793-.34961s-.9934-.6391-1.8184-.63868z" fill-rule="evenodd" text-indent="0" text-align="start" text-decoration-line="none" text-decoration-style="solid" text-decoration-color="#000000" text-transform="none" block-progression="tb" white-space="normal" isolation="auto" mix-blend-mode="normal" solid-color="#000000" solid-opacity="1" fill="#ffffff" fill-opacity="1" data-original-color="#ffffffff" stroke="none" stroke-opacity="1"/><path id="path20512" d="m2021.5508 372.14223c-.9492.0554-1.6845.73547-2.1256 1.57775s-.6524 1.90224-.5895 3.04538c.063 1.14315.3889 2.17173.9195 2.95727s1.3358 1.37759 2.285 1.32217c.9491-.0554 1.6843-.73742 2.1255-1.57971.4411-.84228.6504-1.90213.5876-3.04527-.063-1.14315-.387-2.17184-.9176-2.95738-.5307-.78554-1.3359-1.37563-2.2849-1.32021zm.082 1.49773c.2714-.0159.615.15832.9579.66599.3429.50768.6153 1.2998.6648 2.20131.05.90151-.1341 1.72222-.4192 2.26656-.285.54434-.6073.75739-.8788.77324-.2714.0159-.6169-.15821-.9598-.66588s-.6153-1.30175-.6649-2.20326c-.05-.90151.1342-1.72026.4192-2.2646.2852-.54435.6094-.75751.8808-.77336z" text-indent="0" text-align="start" text-decoration-line="none" text-decoration-style="solid" text-decoration-color="#000000" text-transform="none" block-progression="tb" white-space="normal" isolation="auto" mix-blend-mode="normal" solid-color="#000000" solid-opacity="1" fill="#ffffff" fill-opacity="1" data-original-color="#ffffffff" stroke="none" stroke-opacity="1"/><path id="path20514" d="m1999.6562 382.09395c-.827.00034-1.5086.31785-2.0917.5918-.5832.27394-1.0332.54883-1.0333.54883a1.0001 1.0001 0 1 0 1.0391 1.70898s.3668-.22321.8438-.44727c.4769-.22405 1.0986-.40228 1.2421-.40234.1419-.00007.3719.10214.7793.34961.4075.24747.9936.63867 1.8184.63867.8247 0 1.4089-.39122 1.8164-.63867.4076-.24745.6391-.34961.7813-.34961.1421 0 .3717.10216.7793.34961.4075.24745.9917.63867 1.8164.63867.8246 0 1.4108-.39122 1.8183-.63867.4076-.24745.6372-.34961.7793-.34961.1422 0 .3718.10216.7793.34961.4076.24745.9937.63867 1.8184.63867.8246 0 1.4088-.39122 1.8164-.63867.4075-.24745.6371-.34961.7793-.34961.1421 0 .3717.10216.7793.34961.4075.24745.9937.63867 1.8183.63867.8247 0 1.4089-.39122 1.8164-.63867.4076-.24745.6392-.34961.7813-.34961.144-.00009.7648.1776 1.2422.40039.4773.2228.8457.44336.8457.44336a1.0001 1.0001 0 1 0 1.0351-1.71094s-.4518-.27266-1.0351-.54492c-.5828-.27202-1.2632-.58785-2.0879-.58789-.8234.00075-1.4092.39146-1.8164.63867-.4075.24745-.6371.34961-.7793.34961-.1421 0-.3717-.10216-.7793-.34961-.4075-.24745-.9937-.63867-1.8183-.63867-.8247 0-1.4089.39122-1.8164.63867-.4076.24745-.6372.34961-.7793.34961-.1422 0-.3737-.10216-.7813-.34961-.4075-.24745-.9917-.63867-1.8164-.63867-.8246 0-1.4108.39122-1.8183.63867-.4076.24745-.6372.34961-.7793.34961-.1422 0-.3718-.10216-.7793-.34961-.4076-.24745-.9918-.63867-1.8164-.63867-.8247 0-1.4108.39122-1.8184.63867-.4075.24745-.6372.34961-.7793.34961-.142 0-.3717-.10206-.7793-.34961s-.9934-.6391-1.8184-.63867z" fill-rule="evenodd" text-indent="0" text-align="start" text-decoration-line="none" text-decoration-style="solid" text-decoration-color="#000000" text-transform="none" block-progression="tb" white-space="normal" isolation="auto" mix-blend-mode="normal" solid-color="#000000" solid-opacity="1" fill="#ffffff" fill-opacity="1" data-original-color="#ffffffff" stroke="none" stroke-opacity="1"/><path id="path20516" d="m2009.0449 377.22733-7.5586 4.35547c.202.11036.3807.21847.5098.29688.1482.09.2006.11164.2598.14062.059-.029.1116-.0507.2597-.14062.4075-.24745 1.1719-.78516 2.3379-.78516.4439 0 .811.089 1.1406.19922l4.0508-2.33398zm-6.789 4.79297c-.1035.0508-.1268.0625 0 .0625.127 0 .1035-.0117 0-.0625z" fill-rule="evenodd" text-indent="0" text-align="start" text-decoration-line="none" text-decoration-style="solid" text-decoration-color="#000000" text-transform="none" block-progression="tb" white-space="normal" isolation="auto" mix-blend-mode="normal" solid-color="#000000" solid-opacity="1" fill="#ffffff" fill-opacity="1" data-original-color="#ffffffff" stroke="none" stroke-opacity="1"/><path id="path20518" d="m2012.7969 374.09452c-1.0987 0-2.0001.9013-2 2 0 1.09865.9013 2 2 2 1.0986 0 2-.90135 2-2 0-1.0987-.9013-2-2-2z" text-indent="0" text-align="start" text-decoration-line="none" text-decoration-style="solid" text-decoration-color="#000000" text-transform="none" block-progression="tb" white-space="normal" isolation="auto" mix-blend-mode="normal" solid-color="#000000" solid-opacity="1" fill="#ffffff" fill-opacity="1" data-original-color="#ffffffff" stroke="none" stroke-opacity="1"/><path id="path20520" d="m2007.8008 374.09395a1.0001 1.0001 0 0 0 -.168.0137l-6 1 .3281 1.97266 5.3477-.89063 3.1445 4.94141a1.0001 1.0001 0 0 0 1.1602.41211l6-2-.6328-1.89844-5.2598 1.75391-3.0801-4.8418a1.0001 1.0001 0 0 0 -.8398-.46289z" fill-rule="evenodd" text-indent="0" text-align="start" text-decoration-line="none" text-decoration-style="solid" text-decoration-color="#000000" text-transform="none" block-progression="tb" white-space="normal" isolation="auto" mix-blend-mode="normal" solid-color="#000000" solid-opacity="1" fill="#ffffff" fill-opacity="1" data-original-color="#ffffffff" stroke="none" stroke-opacity="1"/></g></g></g></g></g></svg>