<svg id="SVGRoot" height="300" viewBox="0 0 64 64" width="300" xmlns="http://www.w3.org/2000/svg" version="1.1" xmlns:xlink="http://www.w3.org/1999/xlink" xmlns:svgjs="http://svgjs.dev/svgjs"><g width="100%" height="100%" transform="matrix(1,0,0,1,0,0)"><path d="m23.859 2.0103c-.26323.037279-.50078.17784-.66016.39062-.33138.4422-.24129 1.0693.20117 1.4004l5.5996 4.1992h-24c-1.6447 0-3 1.3553-3 3v32c0 1.6447 1.3553 3 3 3h6.0664c.26848 4.0802 1.4244 7.8552 4.2168 10.719 3.2438 3.3264 8.5582 5.2812 16.717 5.2812s13.473-1.9548 16.717-5.2812c2.7924-2.8634 3.9483-6.6385 4.2168-10.719h6.0664c1.6447 0 3-1.3553 3-3v-32c0-1.6447-1.3553-3-3-3h-24l5.5996-4.1992c.44246-.33103.53255-.95818.20117-1.4004-.33104-.44246-.95819-.53255-1.4004-.20117l-7.4004 5.5507-7.4004-5.5507c-.21194-.15864-.47814-.22677-.74023-.18945zm-18.859 7.9902h54c.5713 0 1 .4287 1 .99999v32c0 .57129-.4287.99999-1 .99999h-6c0-1.645-1.355-3-3-3h-3c0-2.1973-1.8027-4-4-4-.76035 0-1.4726.21647-2.0801.58984-.82709-.96999-2.0541-1.5898-3.4199-1.5898-1.3656 0-2.5928.62015-3.4199 1.5898-.6075-.37337-1.3197-.58984-2.0801-.58984s-1.4726.21647-2.0801.58984c-.82709-.96999-2.0541-1.5898-3.4199-1.5898-1.3656 0-2.5928.62015-3.4199 1.5898-.6075-.37337-1.3197-.58984-2.0801-.58984-2.1973 0-4 1.8027-4 4h-3c-1.645 0-3 1.355-3 3h-6c-.5713 0-1-.4287-1-.99999v-32c0-.57129.4287-.99999 1-.99999zm21.5 9.2382v11.523c0 2.2304 2.6891 3.5485 4.4531 2.1836l7.5176-5.8164c1.3732-1.0626 1.3732-3.1952 0-4.2578l-7.5176-5.8164c-1.8156-1.3712-4.4551.008-4.4531 2.1836zm3.2285-.60156 7.5176 5.8164c.37742.29204.37742.8017 0 1.0937l-7.5176 5.8164c-.55245.42748-1.2285.096961-1.2285-.60156v-11.523c.06445-.89421.84379-.92505 1.2285-.60156zm-3.2285 19.363c.8395 0 1.5733.40451 2.0254 1.0293-.33331.58296-.52539 1.2556-.52539 1.9707h-3c0-.71507-.19208-1.3877-.52539-1.9707.4521-.62477 1.1859-1.0293 2.0254-1.0293zm11 0c.8395 0 1.5733.40451 2.0254 1.0293-.33331.58296-.52539 1.2556-.52539 1.9707h-3c0-.71507-.19208-1.3877-.52539-1.9707.4521-.62477 1.1859-1.0293 2.0254-1.0293zm-16.5.99999c1.1164 0 2 .88358 2 2h-4c0-1.1164.88359-2 2-2zm11 0c1.1164 0 2 .88358 2 2h-4c0-1.1164.88359-2 2-2zm11 0c1.1164 0 2 .88358 2 2h-4c0-1.1164.88359-2 2-2zm-29 4h36c.56413 0 1 .43587 1 .99999 0 4.5524-.96065 8.4959-3.7168 11.322-2.7561 2.8263-7.4418 4.6777-15.283 4.6777s-12.527-1.8514-15.283-4.6777c-2.7561-2.8263-3.7168-6.7698-3.7168-11.322 0-.56412.43587-.99999 1-.99999z" fill="#ff0000" fill-opacity="1" data-original-color="#000000ff" stroke="none" stroke-opacity="1"/></g></svg>